HIERARCHY
ROOT pelvis
{
  OFFSET 0 100 0
  CHANNELS 6 Xposition Yposition Zposition Zrotation Xrotation Yrotation
  JOINT pelvis_right_femur
  {
    OFFSET -10.78128 -3.44521 -0.5502486
    CHANNELS 3 Zrotation Xrotation Yrotation
    JOINT right_femur_tibia
    {
      OFFSET -0.8047443 -44.0398 -0.1307829
      CHANNELS 3 Zrotation Xrotation Yrotation
      JOINT right_tibia_foot
      {
        OFFSET 3.006224 -47.83518 -5
        CHANNELS 3 Zrotation Xrotation Yrotation
        End Site
        {
          OFFSET 0 -5 15
        }
      }
    }
  }
  JOINT pelvis_left_femur
  {
    OFFSET 10.78128 -3.44521 -0.5502486
    CHANNELS 3 Zrotation Xrotation Yrotation
    JOINT left_femur_tibia
    {
      OFFSET 0.8047443 -44.0398 -0.1307829
      CHANNELS 3 Zrotation Xrotation Yrotation
      JOINT left_tibia_foot
      {
        OFFSET -4.370144 -48.10324 -4.275266
        CHANNELS 3 Zrotation Xrotation Yrotation
        End Site
        {
          OFFSET 0 -5 15
        }
      }
    }
  }
  JOINT pelvis_spine1
  {
    OFFSET 0 6.468898 -3.129235
    CHANNELS 3 Zrotation Xrotation Yrotation
    JOINT spine1
    {
      OFFSET 0 23.15396 4.99043
      CHANNELS 3 Zrotation Xrotation Yrotation
      JOINT spine2
      {
        OFFSET 0 20.79997 -5.064912
        CHANNELS 3 Zrotation Xrotation Yrotation
        JOINT neck
        {
          OFFSET 0 14.38658 9.616178
          CHANNELS 3 Zrotation Xrotation Yrotation
          End Site
          {
            OFFSET 0 20 0
          }
        }
      }
      JOINT right_manubrium
      {
        OFFSET -5.722621 16.35077 3.967754
        CHANNELS 3 Zrotation Xrotation Yrotation
        JOINT right_clavicle
        {
          OFFSET -13.16364 1.694482 -4.693211
          CHANNELS 3 Zrotation Xrotation Yrotation
          JOINT right_humerus
          {
            OFFSET -28.5034 -0.3100689 -2.792744
            CHANNELS 3 Zrotation Xrotation Yrotation
            JOINT right_radius
            {
              OFFSET -25.15693 0.02248979 -1.271978
              CHANNELS 3 Zrotation Xrotation Yrotation
              End Site
              {
                OFFSET -15 0 0
              }
            }
          }
        }
      }
      JOINT left_manubrium
      {
        OFFSET 5.722621 16.35077 3.967754
        CHANNELS 3 Zrotation Xrotation Yrotation
        JOINT left_clavicle
        {
          OFFSET 13.16364 1.694482 -4.693211
          CHANNELS 3 Zrotation Xrotation Yrotation
          JOINT left_humerus
          {
            OFFSET 29.39168 -1.063119 -2.237045
            CHANNELS 3 Zrotation Xrotation Yrotation
            JOINT left_radius
            {
              OFFSET 24.59957 -0.9528479 0.9047498
              CHANNELS 3 Zrotation Xrotation Yrotation
              End Site
              {
                OFFSET 15 -0 -0
              }
            }
          }
        }
      }
    }
  }
}
MOTION
Frames: 20
Frame Time: 0.0416666666667
0 103.5113 0 1.314078 -1.817784 -0.172747 2.926673 -11.14796 9.403588 4.392815e-09 35.09755 -1.929906e-09 -6.591473 -18.29282 -4.51019 -6.992809 7.173472 -22.34251 -1.217135e-08 5.937587 9.374552e-09 8.791258 -16.756 28.61972 -4.561458 -3.775192 4.869849 2.487233 9.361627 -7.718357 1.352524 22.72896 6.43121 3.145626 -23.18593 8.620078 6.302543 -20.23135 11.49488 85.43073 36.50174 -18.05835 4.325596e-09 2.477443e-10 16.9544 -7.403529 8.626026 4.874372 5.231373 -19.3085 -1.53035 -95.63297 29.75139 23.32751 -7.181711e-10 1.141991e-09 -13.90656 3.197252 17.58263 9.958464
0.258679 103.5636 1.351435 1.130109 -1.668851 -0.2087766 3.091566 -13.6885 9.341183 4.317527e-09 37.81107 -2.396259e-09 -6.295149 -17.28574 -4.593153 -6.934941 8.679313 -22.46534 -1.047048e-08 5.733362 7.38791e-09 8.24882 -17.31236 27.4575 -4.360017 -3.544499 4.60841 2.489271 9.317995 -7.85931 1.31998 22.5877 6.586977 3.102144 -23.40145 8.826426 6.369034 -20.06499 11.49544 85.99994 36.29131 -18.64355 3.800763e-09 7.639889e-10 16.83211 -7.310275 8.78392 4.766141 5.076291 -19.27244 -1.771878 -95.4051 29.9339 23.20758 -5.102968e-10 1.023373e-09 -14.43866 3.088994 17.35423 10.27411
0.5317726 103.656 2.771653 0.8701499 -1.304505 -0.08994076 3.422536 -16.61916 9.104148 4.001232e-09 38.8129 -2.577919e-09 -6.155034 -15.9949 -4.460077 -6.791864 10.01598 -22.42974 -8.075854e-09 5.594751 5.349147e-09 7.562722 -17.96466 26.12293 -4.052959 -3.209406 4.337053 2.527982 9.242676 -7.973226 1.277116 22.36255 6.799021 3.151173 -23.7706 9.01642 6.37927 -19.88005 11.49699 86.42999 36.06951 -19.19873 2.986005e-09 1.113379e-09 16.60856 -7.329257 8.893844 4.780099 5.044227 -19.30481 -2.008463 -95.11405 29.9667 23.00458 -3.249104e-10 8.59738e-10 -15.19077 3.135504 17.08519 10.41558
0.8114837 103.7112 4.354301 0.5748687 -0.7088401 0.1441718 3.859925 -19.70282 8.704821 3.348684e-09 37.89126 -2.439254e-09 -6.093181 -14.38494 -4.088829 -6.617963 11.19803 -22.23849 -5.359004e-09 5.536929 3.609392e-09 6.776395 -18.71978 24.75786 -3.685336 -2.844077 4.09185 2.594926 9.129058 -8.051624 1.236992 22.07239 7.071467 3.313212 -24.28305 9.192983 6.332849 -19.65722 11.48629 86.76838 35.85074 -19.75748 1.999237e-09 1.193289e-09 16.26029 -7.531184 8.949361 4.930445 5.177715 -19.41283 -2.201008 -94.81645 29.82765 22.67946 -2.068738e-10 6.910818e-10 -16.20447 3.335305 16.77697 10.37917
1.080963 103.6377 6.118355 0.2957662 0.00423682 0.4362309 4.358423 -22.79505 8.221174 2.580566e-09 35.07196 -2.126893e-09 -6.086864 -12.64755 -3.549899 -6.46164 12.20064 -21.93136 -2.578868e-09 5.630217 2.42097e-09 6.039382 -19.59257 23.59175 -3.315024 -2.461619 3.895017 2.68551 9.006532 -8.094357 1.201037 21.74467 7.385762 3.576345 -24.84517 9.339299 6.247532 -19.38208 11.47045 86.90957 35.65236 -20.30598 8.955313e-10 1.026115e-09 15.76946 -7.858283 8.920453 5.145914 5.485532 -19.6121 -2.348507 -94.40517 29.55737 22.12372 -1.908274e-10 5.562961e-10 -17.4807 3.667842 16.46544 10.14456
1.331887 103.3936 8.126308 0.01761222 0.8363549 0.7382993 4.873009 -25.59254 7.687434 1.678895e-09 30.93274 -1.6751e-09 -6.146751 -10.8052 -2.879664 -6.312043 12.98571 -21.51542 4.011678e-11 5.927889 1.696114e-09 5.290257 -20.41161 22.53117 -2.944019 -2.119064 3.746488 2.790593 8.860445 -8.100875 1.175734 21.37734 7.707746 3.907107 -25.44426 9.449715 6.136868 -19.06857 11.43329 86.87311 35.50203 -20.7862 -2.027679e-10 6.331229e-10 15.18653 -8.280123 8.843257 5.429826 5.891131 -19.83312 -2.42437 -93.95432 29.17767 21.48708 -2.451085e-10 4.498243e-10 -18.81155 4.067363 16.13164 9.807432
1.559385 102.98 10.48122 -0.2865105 1.730225 1.026182 5.383768 -27.94596 7.147763 6.546031e-10 26.22475 -1.119237e-09 -6.27303 -9.026468 -2.215742 -6.113951 13.65013 -20.97971 2.324548e-09 6.536129 1.1805e-09 4.423477 -20.98743 21.39161 -2.561052 -1.85465 3.615023 2.909053 8.676228 -8.100964 1.171018 20.99544 7.974297 4.225918 -26.01936 9.518255 5.996034 -18.71615 11.3579 86.82067 35.38364 -21.22373 -1.141729e-09 1.029088e-10 14.54149 -8.724443 8.802775 5.74494 6.292381 -20.0309 -2.430257 -93.50019 28.73559 20.83505 -2.952972e-10 3.334202e-10 -20.04121 4.465411 15.75841 9.463491
1.760302 102.4406 13.2634 -0.6154925 2.526703 1.300976 5.85407 -29.72497 6.67678 -3.499668e-10 22.04398 -5.520911e-10 -6.450801 -7.609825 -1.739491 -5.840898 14.2404 -20.36775 4.13951e-09 7.624497 5.759543e-10 3.396312 -21.16511 20.09031 -2.178143 -1.657691 3.468077 3.027669 8.455431 -8.114142 1.193372 20.68363 8.126365 4.442837 -26.4709 9.547734 5.838944 -18.32699 11.24774 86.94186 35.29237 -21.63294 -1.782742e-09 -4.062386e-10 13.87788 -9.085939 8.862946 6.025016 6.573095 -20.16162 -2.389705 -93.10406 28.3452 20.2074 -2.733017e-10 1.668331e-10 -21.00533 4.782311 15.36777 9.218526
1.945679 101.9113 16.57966 -1.003854 3.20563 1.588003 6.287474 -30.66082 6.328677 -1.406755e-09 19.38091 6.971127e-11 -6.748906 -6.517086 -1.487279 -5.473364 14.68486 -19.69068 5.381363e-09 9.600112 -4.389733e-10 2.150023 -20.64533 18.44979 -1.770492 -1.566102 3.299554 3.14061 8.219496 -8.153576 1.230627 20.42756 8.130514 4.518899 -26.81313 9.51592 5.712158 -17.92631 11.1121 87.25019 35.28176 -21.97557 -2.047552e-09 -8.023468e-10 13.22898 -9.279024 9.073853 6.246621 6.592187 -20.15871 -2.310845 -92.81101 28.04906 19.82985 -1.336768e-10 -6.502068e-11 -21.43824 4.957221 14.94504 9.186029
2.129838 101.5607 20.44089 -1.425515 3.655191 1.915012 6.653148 -30.69631 6.12564 -2.360292e-09 18.81686 7.393182e-10 -7.24613 -5.753514 -1.47717 -5.046322 14.83662 -18.95549 6.133053e-09 12.65634 -2.016746e-09 0.8668006 -19.34015 16.56318 -1.365739 -1.536393 3.109573 3.238677 8.037784 -8.227213 1.249368 20.23038 7.990057 4.446188 -27.00062 9.387023 5.667604 -17.53285 10.98924 87.59953 35.42589 -22.20066 -1.998722e-09 -9.630245e-10 12.56705 -9.253046 9.428053 6.378371 6.285089 -20.03927 -2.241463 -92.45533 27.87227 19.69165 1.138784e-10 -3.401197e-10 -21.27685 5.001057 14.49913 9.350328
2.329859 101.5112 24.87878 -1.850172 3.832297 2.277248 6.991917 -29.71475 6.037213 -3.23787e-09 19.58811 1.428038e-09 -7.816178 -5.385607 -1.663826 -4.562258 14.44713 -18.0825 6.579377e-09 16.97669 -3.964801e-09 -0.437263 -17.32616 14.61147 -0.9451782 -1.534245 2.972726 3.303604 7.932145 -8.287337 1.272091 20.12935 7.718595 4.251487 -27.02466 9.177692 5.648344 -17.19227 10.90227 88.0527 35.58762 -22.28622 -1.701068e-09 -9.613673e-10 11.99199 -9.167799 9.923738 6.468004 5.73548 -19.83863 -2.188784 -92.21262 27.72827 19.81241 4.348092e-10 -6.37325e-10 -20.65832 4.935062 14.01906 9.670461
2.535447 101.8502 29.73989 -2.228978 3.6673 2.619958 7.417755 -27.97095 6.092175 -3.714257e-09 20.6935 1.907255e-09 -8.528918 -5.572171 -1.949363 -4.051748 13.21966 -17.05894 7.177198e-09 23.07202 -6.18202e-09 -1.568649 -14.78919 12.86199 -0.497498 -1.438881 2.952904 3.346561 7.977205 -8.306457 1.272353 20.11484 7.361413 4.001152 -26.88972 8.861433 5.666379 -16.91408 10.91685 88.29171 35.76653 -22.21968 -1.401786e-09 -7.524831e-10 11.45815 -8.9562 10.43324 6.416877 5.031578 -19.66482 -2.203672 -91.88923 27.60685 20.0462 7.366488e-10 -9.014515e-10 -19.8606 4.852138 13.57473 9.980776
2.731204 102.5902 34.88245 -2.419226 3.104673 2.850415 7.786788 -25.1315 6.143189 -3.636014e-09 21.35661 1.953877e-09 -9.152559 -6.364088 -2.24161 -3.610836 10.78969 -15.81509 7.655208e-09 30.75858 -8.06173e-09 -2.447736 -12.02391 11.68733 -0.1151004 -1.231249 3.165388 3.31137 8.178168 -8.203373 1.271263 20.31034 6.979143 3.763447 -26.54632 8.476754 5.672168 -16.71933 11.05169 88.41896 35.89703 -21.9513 -1.064987e-09 -4.869465e-10 11.02746 -8.949375 10.90758 6.349107 4.335579 -19.57254 -2.264929 -91.67604 27.43453 20.23688 8.990946e-10 -1.062368e-09 -19.19642 4.805609 13.16531 10.20434
2.898812 103.6468 40.00093 -2.309146 2.191524 2.896853 7.917237 -21.33326 6.063751 -2.695484e-09 21.2662 1.351556e-09 -9.593497 -7.689449 -2.326775 -3.332433 6.838842 -14.46314 7.946363e-09 38.53295 -9.165943e-09 -2.83337 -9.581703 11.41213 0.08171076 -0.8389418 3.655146 3.153338 8.536086 -7.913214 1.230394 20.69377 6.688414 3.627658 -26.00456 8.054481 5.679157 -16.70663 11.32348 87.9884 36.05129 -21.19986 -8.869625e-10 -1.658998e-10 10.85723 -9.322234 11.19816 6.396741 3.791251 -19.56752 -2.378603 -91.42908 27.20211 20.31681 8.069306e-10 -1.053845e-09 -18.85372 4.835959 12.81875 10.2551
3.034061 104.8886 44.97499 -1.925824 1.141082 2.742151 7.737609 -16.76096 5.764017 -1.313009e-09 20.34449 3.458164e-10 -9.677178 -9.104943 -2.141365 -3.185736 1.858381 -13.05187 7.424301e-09 45.24331 -8.955654e-09 -2.886348 -7.676444 11.88903 0.06279953 -0.3768685 4.365468 2.865344 8.946978 -7.447077 1.178812 21.21469 6.524568 3.614533 -25.3338 7.657603 5.640031 -16.83978 11.64815 87.20618 36.16334 -20.01955 -7.738159e-10 1.921746e-11 10.94797 -10.27163 11.34498 6.716953 3.482476 -19.59967 -2.483022 -91.25809 26.83403 20.25221 4.824009e-10 -8.920727e-10 -18.86232 4.93426 12.46021 10.17153
3.154172 106.1352 49.72398 -1.344082 0.135296 2.414602 7.227388 -11.75991 5.271571 2.852186e-10 18.96169 -8.033098e-10 -9.426403 -10.46914 -1.663032 -3.11485 -3.75258 -11.72116 5.719873e-09 49.34032 -7.198351e-09 -2.584753 -6.462025 12.95509 -0.1873706 0.07996093 5.200017 2.473353 9.336447 -6.860975 1.100469 21.76631 6.497 3.699041 -24.60781 7.310054 5.558497 -17.18005 11.97083 86.02547 36.27566 -18.35827 -7.153408e-10 6.966677e-11 11.40687 -11.73851 11.36452 7.379906 3.405461 -19.61514 -2.545697 -91.13944 26.35031 20.17269 4.157397e-12 -6.211972e-10 -19.06891 5.057266 12.0832 10.01319
3.280148 107.1802 54.21196 -0.7092307 -0.7212475 1.958549 6.523873 -7.025746 4.711707 1.827039e-09 17.16571 -1.735153e-09 -8.947228 -11.8071 -1.073881 -2.997954 -9.187947 -10.55338 3.373531e-09 49.97614 -4.518717e-09 -1.985989 -5.941601 14.32203 -0.5904264 0.4695605 5.993892 2.059624 9.645706 -6.273978 1.005982 22.21815 6.533251 3.792323 -23.84812 7.014454 5.401473 -17.7151 12.22662 84.54494 36.30194 -16.37561 -7.107059e-10 3.435518e-11 12.2203 -13.44067 11.32705 8.287793 3.519218 -19.6049 -2.571134 -90.94843 25.77141 20.09298 -4.732473e-10 -3.415853e-10 -19.30128 5.161444 11.70489 9.795155
3.47465 107.8127 58.62584 -0.146976 -1.258517 1.445623 5.662033 -2.654118 4.110973 2.874102e-09 15.17653 -2.174071e-09 -8.126805 -13.19101 -0.4985659 -2.706576 -14.00811 -9.494696 1.1861e-09 46.27531 -1.948769e-09 -1.34675 -5.97785 15.63259 -1.056915 0.6805669 6.666023 1.657217 9.752667 -5.743733 0.9434491 22.50942 6.555312 3.790686 -23.09381 6.819524 5.089168 -18.49514 12.32963 83.1511 36.11338 -14.13937 -5.743405e-10 -1.317523e-10 13.58996 -15.3747 11.38927 9.520688 3.771181 -19.46402 -2.499896 -90.97094 25.09071 20.25869 -7.835326e-10 -1.711464e-10 -19.33977 5.114822 11.2475 9.713028
3.77282 107.9288 62.94987 0.2742732 -1.523622 0.9348982 4.767356 0.9355663 3.651951 3.696766e-09 13.62308 -2.139197e-09 -7.390981 -14.72648 -0.05631675 -2.278136 -17.94321 -8.667764 3.246885e-12 39.37515 -4.739146e-10 -0.5138733 -6.306561 16.76303 -1.534337 0.7563601 7.124719 1.349211 9.737125 -5.369722 0.8574135 22.5585 6.524903 3.678293 -22.38514 6.646613 4.76536 -19.42843 12.32013 81.54287 35.93767 -11.79579 -4.151572e-10 -2.122129e-10 15.24091 -16.99128 11.49771 10.77284 4.000412 -19.23489 -2.379674 -90.80898 24.48797 20.64966 -8.991811e-10 -1.19537e-10 -19.00327 4.932571 10.82514 9.733057
4.205603 107.5314 67.35066 0.5304962 -1.518281 0.4813399 3.914496 3.898202 3.315746 4.030595e-09 12.66758 -1.687812e-09 -6.665326 -16.18256 0.1985729 -1.728441 -20.77774 -7.962149 -6.312707e-10 30.83047 1.335519e-10 0.2022816 -6.639432 17.49196 -1.94118 0.643088 7.387783 1.12973 9.5911 -5.149681 0.7980771 22.43661 6.412892 3.450808 -21.76032 6.522936 4.404897 -20.38434 12.18625 80.22723 35.696 -9.648416 -7.365447e-11 -2.898391e-10 16.99923 -18.36049 11.73638 12.0061 4.159334 -18.91435 -2.202229 -90.70808 23.93819 21.25191 -8.059868e-10 -1.912138e-10 -18.34861 4.621416 10.38817 9.915523
